<svg width="12" height="13" viewBox="0 0 12 13" fill="none" xmlns="http://www.w3.org/2000/svg">
<g id="Filetype/ icon-16-file-design" clip-path="url(#clip0_320_14677)">
<path id="Union" d="M0.864502 2.8844C0.864502 2.09177 1.50706 1.44922 2.29969 1.44922H9.47561C10.2682 1.44922 10.9108 2.09177 10.9108 2.8844V10.0603C10.9108 10.853 10.2682 11.4955 9.47561 11.4955H2.29969C1.50706 11.4955 0.864502 10.853 0.864502 10.0603V2.8844Z" fill="#0D99FF"/>
<path id="Union_2" fill-rule="evenodd" clip-rule="evenodd" d="M6.18973 4.99855L6.18025 4.99584L4.40938 4.48981L5.75205 5.83543C5.77942 5.83157 5.80738 5.82958 5.83581 5.82958C6.16476 5.82958 6.43143 6.09683 6.43143 6.4265C6.43143 6.75618 6.16476 7.02343 5.83581 7.02343C5.50686 7.02343 5.2402 6.75618 5.2402 6.4265C5.2402 6.39853 5.24212 6.371 5.24583 6.34405L3.9084 5.00367L4.38519 6.67053L4.3928 6.69713L4.39834 6.72423C4.53541 7.39513 5.12825 7.89763 5.83477 7.89763C5.99649 7.89763 6.15072 7.87163 6.29439 7.82411L6.71488 7.68504L7.0277 7.99855L7.53406 8.50602L7.92423 8.115L7.40824 7.59788L7.10033 7.28929L7.23229 6.87382C7.2768 6.73367 7.3011 6.58362 7.3011 6.42649C7.3011 5.74007 6.83223 5.16319 6.19928 5.001L6.18973 4.99855ZM8.93794 8.115L8.04092 9.014L7.53406 9.52197L7.0272 9.014L6.51973 8.50541C6.30429 8.57666 6.07402 8.61522 5.83477 8.61522C4.77949 8.61522 3.89902 7.8651 3.69527 6.86788L2.89093 4.05591L2.65845 3.24316L3.47126 3.47543L6.37741 4.30587C7.32105 4.54767 8.01869 5.40543 8.01869 6.42649C8.01869 6.65817 7.98277 6.88145 7.91621 7.09102L8.93794 8.115Z" fill="white"/>
</g>
<defs>
<clipPath id="clip0_320_14677">
<rect width="11.4815" height="11.4815" fill="white" transform="translate(0.146973 0.731445)"/>
</clipPath>
</defs>
</svg>
