<svg width="800" height="800" viewBox="0 0 800 800" fill="none" xmlns="http://www.w3.org/2000/svg">
<path fill-rule="evenodd" clip-rule="evenodd" d="M269.379 321.697C243.866 305.035 227 276.188 227 243.392C227 191.813 268.719 150 320.184 150H479.836C531.301 150 573.02 191.813 573.02 243.392C573.02 276.188 556.154 305.035 530.641 321.697C556.154 338.358 573.02 367.206 573.02 400.001C573.02 451.58 531.301 493.394 479.836 493.394H478.138C453.811 493.394 431.661 484.05 415.066 468.749V555.756C415.066 607.911 372.433 650 320.606 650C269.248 650 227 608.293 227 556.608C227 523.813 243.866 494.966 269.378 478.304C243.866 461.642 227 432.796 227 400.001C227 367.206 243.866 338.358 269.379 321.697ZM415.066 400.001C415.066 434.913 443.304 463.215 478.138 463.215H479.836C514.671 463.215 542.909 434.913 542.909 400.001C542.909 365.089 514.671 336.787 479.836 336.787H478.138C443.304 336.787 415.066 365.089 415.066 400.001ZM384.954 336.787H320.184C285.349 336.787 257.111 365.089 257.111 400.001C257.111 434.843 285.235 463.101 319.971 463.215H320.07L384.954 463.214V336.787ZM320.184 493.394C320.113 493.394 320.043 493.394 319.972 493.393C285.235 493.508 257.111 521.766 257.111 556.608C257.111 591.414 285.666 619.822 320.606 619.822C356.015 619.822 384.954 591.033 384.954 555.756V493.394H320.184ZM384.954 306.607H320.184C285.349 306.607 257.111 278.305 257.111 243.392C257.111 208.48 285.349 180.178 320.184 180.178H384.954V306.607ZM479.836 306.607H415.066V180.178H479.836C514.671 180.178 542.909 208.48 542.909 243.392C542.909 278.305 514.671 306.607 479.836 306.607Z" fill="white"/>
</svg>
