<svg width="800" height="800" viewBox="0 0 800 800" fill="none" xmlns="http://www.w3.org/2000/svg">
<path fill-rule="evenodd" clip-rule="evenodd" d="M190.807 274.715C149.986 248.056 123 201.901 123 149.428C123 66.9013 189.751 0 272.094 0H527.538C609.881 0 676.632 66.9013 676.632 149.428C676.632 201.901 649.646 248.056 608.825 274.715C649.646 301.373 676.632 347.529 676.632 400.001C676.632 482.528 609.881 549.43 527.538 549.43H524.821C485.897 549.43 450.457 534.48 423.905 509.998V649.21C423.905 732.658 355.692 800 272.769 800C190.596 800 123 733.268 123 650.572C123 598.1 149.985 551.945 190.804 525.287C149.985 498.628 123 452.473 123 400.001C123 347.529 149.986 301.373 190.807 274.715ZM423.905 400.001C423.905 455.861 469.086 501.144 524.821 501.144H527.538C583.273 501.144 628.455 455.861 628.455 400.001C628.455 344.142 583.273 298.859 527.538 298.859H524.821C469.086 298.859 423.905 344.142 423.905 400.001ZM375.727 298.859H272.094C216.359 298.859 171.177 344.142 171.177 400.001C171.177 455.748 216.176 500.961 271.754 501.144L271.912 501.144L375.727 501.143V298.859ZM272.094 549.43C271.981 549.43 271.868 549.43 271.755 549.429C216.176 549.613 171.177 594.825 171.177 650.572C171.177 706.262 216.865 751.715 272.769 751.715C329.424 751.715 375.727 705.653 375.727 649.21V549.43H272.094ZM375.727 250.571H272.094C216.359 250.571 171.177 205.288 171.177 149.428C171.177 93.5686 216.359 48.2853 272.094 48.2853H375.727V250.571ZM527.538 250.571H423.905V48.2853H527.538C583.273 48.2853 628.455 93.5686 628.455 149.428C628.455 205.288 583.273 250.571 527.538 250.571Z" fill="white"/>
</svg>
