<svg width="24" height="24" viewBox="0 0 24 24" fill="none" xmlns="http://www.w3.org/2000/svg">
<path fill-rule="evenodd" clip-rule="evenodd" d="M7 7.55555C7 8.46422 7.4363 9.27098 8.11084 9.77777C7.4363 10.2845 7 11.0913 7 12C7 12.9087 7.4363 13.7154 8.11084 14.2222C7.4363 14.729 7 15.5358 7 16.4444C7 17.9785 8.24366 19.2222 9.77778 19.2222C11.3119 19.2222 12.5556 17.9785 12.5556 16.4444V14.7778V14.2224C13.0198 14.5711 13.5969 14.7778 14.2222 14.7778C15.7563 14.7778 17 13.5341 17 12C17 11.0913 16.5637 10.2845 15.8891 9.77777C16.5637 9.27098 17 8.46422 17 7.55555C17 6.02143 15.7563 4.77777 14.2222 4.77777H12.5556H12H11.4444H9.77778C8.24366 4.77777 7 6.02143 7 7.55555ZM14.2222 9.22222C15.1427 9.22222 15.8889 8.47603 15.8889 7.55555C15.8889 6.63507 15.1427 5.88888 14.2222 5.88888H12.5556V9.22222H14.2222ZM12.5556 12C12.5556 12.9204 13.3018 13.6667 14.2222 13.6667C15.1427 13.6667 15.8889 12.9204 15.8889 12C15.8889 11.0795 15.1427 10.3333 14.2222 10.3333C13.3018 10.3333 12.5556 11.0795 12.5556 12ZM11.4444 13.6667H9.77778C8.8573 13.6667 8.11111 12.9204 8.11111 12C8.11111 11.0795 8.8573 10.3333 9.77778 10.3333H11.4444V12V13.6667ZM9.77778 14.7778H11.4444V16.4444C11.4444 17.3649 10.6982 18.1111 9.77778 18.1111C8.8573 18.1111 8.11111 17.3649 8.11111 16.4444C8.11111 15.524 8.8573 14.7778 9.77778 14.7778ZM11.4444 9.22222H9.77778C8.8573 9.22222 8.11111 8.47603 8.11111 7.55555C8.11111 6.63507 8.8573 5.88888 9.77778 5.88888H11.4444V9.22222Z" fill="black" fill-opacity="0.9"/>
</svg>
